<svg width="52" height="64" viewBox="0 0 52 64" fill="none" xmlns="http://www.w3.org/2000/svg">
<path fill-rule="evenodd" clip-rule="evenodd" d="M22.4 46.4C22.4 44.6327 23.8327 43.2 25.6 43.2H35.2C36.9673 43.2 38.4 44.6327 38.4 46.4C38.4 48.1673 36.9673 49.6 35.2 49.6H25.6C23.8327 49.6 22.4 48.1673 22.4 46.4Z" fill="#F9F9FB"/>
<path fill-rule="evenodd" clip-rule="evenodd" d="M22.4 36.8C22.4 35.0327 23.8327 33.6 25.6 33.6H35.2C36.9673 33.6 38.4 35.0327 38.4 36.8C38.4 38.5673 36.9673 40 35.2 40H25.6C23.8327 40 22.4 38.5673 22.4 36.8Z" fill="#F9F9FB"/>
<path fill-rule="evenodd" clip-rule="evenodd" d="M22.4 27.2C22.4 25.4327 23.8327 24 25.6 24H35.2C36.9673 24 38.4 25.4327 38.4 27.2C38.4 28.9673 36.9673 30.4 35.2 30.4H25.6C23.8327 30.4 22.4 28.9673 22.4 27.2Z" fill="#F9F9FB"/>
<path d="M19.2 27.2C19.2 28.9673 17.7673 30.4 16 30.4C14.2327 30.4 12.8 28.9673 12.8 27.2C12.8 25.4327 14.2327 24 16 24C17.7673 24 19.2 25.4327 19.2 27.2Z" fill="#F9F9FB"/>
<path fill-rule="evenodd" clip-rule="evenodd" d="M0 9.6C0 6.06538 2.86538 3.2 6.4 3.2H16C17.7673 3.2 19.2 4.63269 19.2 6.4C19.2 8.16731 17.7673 9.6 16 9.6H6.4V57.6H44.8V9.6H35.2C33.4327 9.6 32 8.16731 32 6.4C32 4.63269 33.4327 3.2 35.2 3.2H44.8C48.3346 3.2 51.2 6.06538 51.2 9.6V57.6C51.2 61.1346 48.3346 64 44.8 64H6.4C2.86538 64 0 61.1346 0 57.6V9.6Z" fill="#F9F9FB"/>
<path d="M19.2 36.8C19.2 38.5673 17.7673 40 16 40C14.2327 40 12.8 38.5673 12.8 36.8C12.8 35.0327 14.2327 33.6 16 33.6C17.7673 33.6 19.2 35.0327 19.2 36.8Z" fill="#F9F9FB"/>
<path d="M19.2 46.4C19.2 48.1673 17.7673 49.6 16 49.6C14.2327 49.6 12.8 48.1673 12.8 46.4C12.8 44.6327 14.2327 43.2 16 43.2C17.7673 43.2 19.2 44.6327 19.2 46.4Z" fill="#F9F9FB"/>
<path fill-rule="evenodd" clip-rule="evenodd" d="M12.8 3.2C12.8 1.43269 14.2327 0 16 0H35.2C36.9673 0 38.4 1.43269 38.4 3.2V12.8C38.4 14.5673 36.9673 16 35.2 16H16C14.2327 16 12.8 14.5673 12.8 12.8V3.2ZM19.2 6.4V9.6H32V6.4H19.2Z" fill="#F9F9FB"/>
</svg>
