<svg width="16" height="16" viewBox="0 0 16 16" fill="none" xmlns="http://www.w3.org/2000/svg">
<path fill-rule="evenodd" clip-rule="evenodd" d="M5.65401 0.260373C5.92523 0.531592 5.99189 0.946192 5.81936 1.28876C5.36948 2.18196 5.11574 3.19143 5.11574 4.26274C5.11574 7.91971 8.0803 10.8843 11.7373 10.8843C12.8086 10.8843 13.818 10.6305 14.7112 10.1806C15.0538 10.0081 15.4684 10.0748 15.7396 10.346C16.0108 10.6172 16.0775 11.0318 15.905 11.3744C14.5241 14.1161 11.6825 16 8.3993 16C3.7605 16 0 12.2395 0 7.6007C0 4.31751 1.88391 1.47592 4.62563 0.095032C4.96819 -0.0775035 5.38279 -0.0108449 5.65401 0.260373ZM3.39706 3.26188C2.38788 4.42438 1.77778 5.94162 1.77778 7.6007C1.77778 11.2577 4.74233 14.2222 8.3993 14.2222C10.0584 14.2222 11.5756 13.6121 12.7381 12.6029C12.4098 12.642 12.0758 12.662 11.7373 12.662C7.09846 12.662 3.33796 8.90154 3.33796 4.26274C3.33796 3.9242 3.35803 3.5902 3.39706 3.26188Z" fill="#F9F9FB"/>
</svg>
