<svg width="19" height="23" viewBox="0 0 19 23" fill="none" xmlns="http://www.w3.org/2000/svg">
<path fill-rule="evenodd" clip-rule="evenodd" d="M0.79126 2.3C0.79126 1.02975 1.75467 0 2.94309 0H11.5504C11.8358 0 12.1094 0.12116 12.3112 0.336827L17.6908 6.08683C17.8925 6.30249 18.0059 6.595 18.0059 6.9V20.7C18.0059 21.9703 17.0425 23 15.8541 23H2.94309C1.75467 23 0.79126 21.9703 0.79126 20.7V2.3ZM15.4084 6.9H11.5504V2.77635L15.4084 6.9ZM9.39858 2.3V8.05C9.39858 8.68513 9.88028 9.2 10.4745 9.2H15.8541V20.7H2.94309V2.3L9.39858 2.3ZM5.09492 12.65C5.09492 12.0149 5.57662 11.5 6.17084 11.5H12.6263C13.2205 11.5 13.7022 12.0149 13.7022 12.65C13.7022 13.2851 13.2205 13.8 12.6263 13.8H6.17084C5.57662 13.8 5.09492 13.2851 5.09492 12.65ZM5.09492 17.25C5.09492 16.6149 5.57662 16.1 6.17084 16.1H12.6263C13.2205 16.1 13.7022 16.6149 13.7022 17.25C13.7022 17.8851 13.2205 18.4 12.6263 18.4H6.17084C5.57662 18.4 5.09492 17.8851 5.09492 17.25Z" fill="#20C997"/>
</svg>
