<svg width="23" height="23" viewBox="0 0 23 23" fill="none" xmlns="http://www.w3.org/2000/svg">
<path fill-rule="evenodd" clip-rule="evenodd" d="M0.358765 2.42105C0.358765 1.08394 1.36406 0 2.60415 0H20.5673C21.8074 0 22.8126 1.08394 22.8126 2.42105V15.7368C22.8126 17.074 21.8074 18.1579 20.5673 18.1579H12.7084V20.5789H16.0765C16.6965 20.5789 17.1992 21.1209 17.1992 21.7895C17.1992 22.458 16.6965 23 16.0765 23H7.09493C6.47488 23 5.97223 22.458 5.97223 21.7895C5.97223 21.1209 6.47488 20.5789 7.09493 20.5789H10.463V18.1579H2.60415C1.36406 18.1579 0.358765 17.074 0.358765 15.7368V2.42105ZM20.5673 15.7368V2.42105H2.60415V15.7368H20.5673Z" fill="#20C997"/>
</svg>
