<svg width="38" height="38" viewBox="0 0 38 38" fill="none" xmlns="http://www.w3.org/2000/svg"> <path fill-rule="evenodd" clip-rule="evenodd" d="M26.5858 0.585786C27.3668 -0.195262 28.6332 -0.195262 29.4142 0.585786L37.4142 8.58579C38.1953 9.36684 38.1953 10.6332 37.4142 11.4142L11.4142 37.4142C11.0391 37.7893 10.5304 38 10 38H2C0.89543 38 0 37.1046 0 36V28C0 27.4696 0.210714 26.9609 0.585786 26.5858L20.5854 6.5862L26.5858 0.585786ZM22 10.8284L4 28.8284V34H9.17157L27.1716 16L22 10.8284ZM30 13.1716L24.8284 8L28 4.82843L33.1716 10L30 13.1716Z" fill="#fa8b0c"/> </svg> 
