<svg width="16" height="18" viewBox="0 0 16 18" fill="none" xmlns="http://www.w3.org/2000/svg">
<path fill-rule="evenodd" clip-rule="evenodd" d="M8 1.72308C6.03632 1.72308 4.44444 3.26597 4.44444 5.16923C4.44444 7.07249 6.03632 8.61539 8 8.61539C9.96368 8.61539 11.5556 7.07249 11.5556 5.16923C11.5556 3.26597 9.96368 1.72308 8 1.72308ZM2.66667 5.16923C2.66667 2.31434 5.05448 0 8 0C10.9455 0 13.3333 2.31434 13.3333 5.16923C13.3333 8.02412 10.9455 10.3385 8 10.3385C5.05448 10.3385 2.66667 8.02412 2.66667 5.16923ZM4.44445 13.7846C2.97168 13.7846 1.77778 14.9418 1.77778 16.3692C1.77778 16.845 1.37981 17.2308 0.888889 17.2308C0.397969 17.2308 0 16.845 0 16.3692C0 13.9902 1.98985 12.0615 4.44445 12.0615H11.5556C14.0102 12.0615 16 13.9902 16 16.3692C16 16.845 15.602 17.2308 15.1111 17.2308C14.6202 17.2308 14.2222 16.845 14.2222 16.3692C14.2222 14.9418 13.0283 13.7846 11.5556 13.7846H4.44445Z" fill="#F9F9FB"/>
</svg>
