<svg width="20" height="23" viewBox="0 0 20 23" fill="none" xmlns="http://www.w3.org/2000/svg">
<path fill-rule="evenodd" clip-rule="evenodd" d="M9.91309 2.3C7.53625 2.3 5.60943 4.35949 5.60943 6.9C5.60943 9.44051 7.53625 11.5 9.91309 11.5C12.2899 11.5 14.2168 9.44051 14.2168 6.9C14.2168 4.35949 12.2899 2.3 9.91309 2.3ZM3.4576 6.9C3.4576 3.08923 6.34783 0 9.91309 0C13.4784 0 16.3686 3.08923 16.3686 6.9C16.3686 10.7108 13.4784 13.8 9.91309 13.8C6.34783 13.8 3.4576 10.7108 3.4576 6.9ZM5.60943 18.4C3.8268 18.4 2.38169 19.9446 2.38169 21.85C2.38169 22.4851 1.89999 23 1.30577 23C0.711562 23 0.229858 22.4851 0.229858 21.85C0.229858 18.6744 2.63838 16.1 5.60943 16.1H14.2168C17.1878 16.1 19.5963 18.6744 19.5963 21.85C19.5963 22.4851 19.1146 23 18.5204 23C17.9262 23 17.4445 22.4851 17.4445 21.85C17.4445 19.9446 15.9994 18.4 14.2168 18.4H5.60943Z" fill="#20C997"/>
</svg>
