<svg width="64" height="64" viewBox="0 0 64 64" fill="none" xmlns="http://www.w3.org/2000/svg">
<path fill-rule="evenodd" clip-rule="evenodd" d="M25.6 6.4C18.5308 6.4 12.8 12.1308 12.8 19.2C12.8 26.2692 18.5308 32 25.6 32C32.6692 32 38.4 26.2692 38.4 19.2C38.4 12.1308 32.6692 6.4 25.6 6.4ZM6.4 19.2C6.4 8.59613 14.9961 0 25.6 0C36.2039 0 44.8 8.59613 44.8 19.2C44.8 29.8039 36.2039 38.4 25.6 38.4C14.9961 38.4 6.4 29.8039 6.4 19.2ZM54.4 28.8C56.1673 28.8 57.6 30.2327 57.6 32V35.2H60.8C62.5673 35.2 64 36.6327 64 38.4C64 40.1673 62.5673 41.6 60.8 41.6H57.6V44.8C57.6 46.5673 56.1673 48 54.4 48C52.6327 48 51.2 46.5673 51.2 44.8V41.6H48C46.2327 41.6 44.8 40.1673 44.8 38.4C44.8 36.6327 46.2327 35.2 48 35.2H51.2V32C51.2 30.2327 52.6327 28.8 54.4 28.8ZM14.4 51.2C10.3697 51.2 6.4 55.0833 6.4 60.8C6.4 62.5673 4.96731 64 3.2 64C1.43269 64 0 62.5673 0 60.8C0 52.3782 6.05909 44.8 14.4 44.8H36.8C45.1409 44.8 51.2 52.3782 51.2 60.8C51.2 62.5673 49.7673 64 48 64C46.2327 64 44.8 62.5673 44.8 60.8C44.8 55.0833 40.8303 51.2 36.8 51.2H14.4Z" fill="#F9F9FB"/>
</svg>
