<svg width="52" height="64" viewBox="0 0 52 64" fill="none" xmlns="http://www.w3.org/2000/svg">
<path fill-rule="evenodd" clip-rule="evenodd" d="M0 6.4C0 2.86538 2.86538 0 6.4 0H32C32.8487 0 33.6626 0.337142 34.2627 0.937258L50.2627 16.9373C50.8629 17.5374 51.2 18.3513 51.2 19.2V57.6C51.2 61.1346 48.3346 64 44.8 64H6.4C2.86538 64 0 61.1346 0 57.6V6.4ZM43.4745 19.2H32V7.72548L43.4745 19.2ZM25.6 6.4V22.4C25.6 24.1673 27.0327 25.6 28.8 25.6H44.8V57.6H6.4V6.4L25.6 6.4ZM25.6 32C27.3673 32 28.8 33.4327 28.8 35.2V38.4H32C33.7673 38.4 35.2 39.8327 35.2 41.6C35.2 43.3673 33.7673 44.8 32 44.8H28.8V48C28.8 49.7673 27.3673 51.2 25.6 51.2C23.8327 51.2 22.4 49.7673 22.4 48V44.8H19.2C17.4327 44.8 16 43.3673 16 41.6C16 39.8327 17.4327 38.4 19.2 38.4H22.4V35.2C22.4 33.4327 23.8327 32 25.6 32Z" fill="#F9F9FB"/>
</svg>
